<svg xmlns="http://www.w3.org/2000/svg" width="247.16" height="35" viewBox="0 0 247.16 35"><rect class="svg__rect" x="0" y="0" width="116.4" height="35" fill="#765CCC"/><rect class="svg__rect" x="114.4" y="0" width="132.76" height="35" fill="#5131B9"/><path class="svg__text" d="M16.51 22L13.46 13.47L15.08 13.47L17.22 20.14L19.39 13.47L21.02 13.47L17.95 22L16.51 22ZM26.53 22L25.06 22L25.06 13.47L26.53 13.47L26.53 22ZM30.91 19.42L30.91 19.42L32.39 19.42Q32.39 20.15 32.87 20.55Q33.35 20.95 34.25 20.95L34.25 20.95Q35.02 20.95 35.41 20.63Q35.80 20.32 35.80 19.80L35.80 19.80Q35.80 19.24 35.41 18.94Q35.01 18.63 33.98 18.32Q32.95 18.01 32.34 17.63L32.34 17.63Q31.17 16.90 31.17 15.72L31.17 15.72Q31.17 14.69 32.02 14.02Q32.86 13.35 34.20 13.35L34.20 13.35Q35.09 13.35 35.79 13.68Q36.48 14.01 36.88 14.61Q37.28 15.22 37.28 15.96L37.28 15.96L35.80 15.96Q35.80 15.29 35.38 14.91Q34.97 14.54 34.19 14.54L34.19 14.54Q33.46 14.54 33.06 14.85Q32.66 15.16 32.66 15.71L32.66 15.71Q32.66 16.18 33.09 16.50Q33.52 16.81 34.52 17.10Q35.52 17.40 36.12 17.78Q36.72 18.16 37.00 18.65Q37.29 19.13 37.29 19.79L37.29 19.79Q37.29 20.86 36.47 21.49Q35.65 22.12 34.25 22.12L34.25 22.12Q33.32 22.12 32.55 21.77Q31.77 21.43 31.34 20.83Q30.91 20.22 30.91 19.42ZM43.14 22L41.66 22L41.66 13.47L43.14 13.47L43.14 22ZM49.63 14.66L46.99 14.66L46.99 13.47L53.76 13.47L53.76 14.66L51.10 14.66L51.10 22L49.63 22L49.63 14.66ZM64.98 22L63.49 22L63.49 13.47L66.76 13.47Q68.19 13.47 69.03 14.21Q69.87 14.96 69.87 16.18L69.87 16.18Q69.87 17.44 69.05 18.13Q68.22 18.83 66.74 18.83L66.74 18.83L64.98 18.83L64.98 22ZM64.98 14.66L64.98 17.64L66.76 17.64Q67.55 17.64 67.97 17.27Q68.38 16.90 68.38 16.19L68.38 16.19Q68.38 15.50 67.96 15.09Q67.54 14.68 66.80 14.66L66.80 14.66L64.98 14.66ZM74.93 22L73.39 22L76.61 13.47L77.94 13.47L81.17 22L79.63 22L78.93 20.01L75.62 20.01L74.93 22ZM77.28 15.28L76.04 18.82L78.51 18.82L77.28 15.28ZM84.88 18.13L84.88 18.13L84.88 17.46Q84.88 15.53 85.81 14.44Q86.73 13.35 88.39 13.35L88.39 13.35Q89.81 13.35 90.65 14.05Q91.49 14.76 91.66 16.08L91.66 16.08L90.21 16.08Q89.96 14.54 88.42 14.54L88.42 14.54Q87.42 14.54 86.91 15.26Q86.39 15.98 86.37 17.37L86.37 17.37L86.37 18.02Q86.37 19.40 86.95 20.17Q87.54 20.93 88.57 20.93L88.57 20.93Q89.71 20.93 90.19 20.42L90.19 20.42L90.19 18.75L88.43 18.75L88.43 17.62L91.67 17.62L91.67 20.89Q91.20 21.50 90.38 21.81Q89.56 22.12 88.52 22.12L88.52 22.12Q87.45 22.12 86.62 21.63Q85.80 21.14 85.35 20.24Q84.90 19.33 84.88 18.13ZM101.86 22L96.28 22L96.28 13.47L101.82 13.47L101.82 14.66L97.77 14.66L97.77 17.02L101.27 17.02L101.27 18.19L97.77 18.19L97.77 20.82L101.86 20.82L101.86 22Z" fill="#FFFFFF"/><path class="svg__text" d="M128.16 17.80L128.16 17.80Q128.16 16.54 128.76 15.54Q129.36 14.55 130.41 13.99Q131.46 13.43 132.78 13.43L132.78 13.43Q133.93 13.43 134.85 13.84Q135.78 14.25 136.39 15.02L136.39 15.02L134.88 16.39Q134.07 15.40 132.90 15.40L132.90 15.40Q132.21 15.40 131.68 15.70Q131.15 16 130.85 16.54Q130.56 17.09 130.56 17.80L130.56 17.80Q130.56 18.51 130.85 19.05Q131.15 19.60 131.68 19.90Q132.21 20.20 132.90 20.20L132.90 20.20Q134.07 20.20 134.88 19.22L134.88 19.22L136.39 20.58Q135.78 21.35 134.86 21.76Q133.93 22.17 132.78 22.17L132.78 22.17Q131.46 22.17 130.41 21.61Q129.36 21.05 128.76 20.05Q128.16 19.06 128.16 17.80ZM147.31 22L140.93 22L140.93 13.60L143.31 13.60L143.31 20.11L147.31 20.11L147.31 22ZM154.11 22L151.73 22L151.73 13.60L154.11 13.60L154.11 22ZM158.86 17.80L158.86 17.80Q158.86 16.54 159.46 15.54Q160.05 14.55 161.10 13.99Q162.16 13.43 163.47 13.43L163.47 13.43Q164.63 13.43 165.55 13.84Q166.47 14.25 167.09 15.02L167.09 15.02L165.58 16.39Q164.76 15.40 163.60 15.40L163.60 15.40Q162.91 15.40 162.38 15.70Q161.85 16 161.55 16.54Q161.25 17.09 161.25 17.80L161.25 17.80Q161.25 18.51 161.55 19.05Q161.85 19.60 162.38 19.90Q162.91 20.20 163.60 20.20L163.60 20.20Q164.76 20.20 165.58 19.22L165.58 19.22L167.09 20.58Q166.48 21.35 165.55 21.76Q164.63 22.17 163.47 22.17L163.47 22.17Q162.16 22.17 161.10 21.61Q160.05 21.05 159.46 20.05Q158.86 19.06 158.86 17.80ZM173.98 22L171.63 22L171.63 13.60L173.98 13.60L173.98 17.09L177.23 13.60L179.85 13.60L176.42 17.32L180.03 22L177.27 22L174.87 18.95L173.98 19.90L173.98 22ZM193.49 22L191.11 22L191.11 13.60L193.49 13.60L193.49 16.76L196.73 16.76L196.73 13.60L199.10 13.60L199.10 22L196.73 22L196.73 18.72L193.49 18.72L193.49 22ZM211.01 22L204.26 22L204.26 13.60L210.85 13.60L210.85 15.44L206.62 15.44L206.62 16.85L210.35 16.85L210.35 18.63L206.62 18.63L206.62 20.17L211.01 20.17L211.01 22ZM218.19 22L215.81 22L215.81 13.60L219.65 13.60Q220.80 13.60 221.63 13.98Q222.47 14.35 222.93 15.06Q223.39 15.76 223.39 16.71L223.39 16.71Q223.39 17.62 222.96 18.30Q222.53 18.98 221.74 19.36L221.74 19.36L223.55 22L221.01 22L219.48 19.77L218.19 19.77L218.19 22ZM218.19 15.47L218.19 17.93L219.51 17.93Q220.24 17.93 220.61 17.61Q220.98 17.29 220.98 16.71L220.98 16.71Q220.98 16.12 220.61 15.79Q220.24 15.47 219.51 15.47L219.51 15.47L218.19 15.47ZM234.92 22L228.17 22L228.17 13.60L234.77 13.60L234.77 15.44L230.53 15.44L230.53 16.85L234.26 16.85L234.26 18.63L230.53 18.63L230.53 20.17L234.92 20.17L234.92 22Z" fill="#FFFFFF" x="127.4"/></svg>